<?xml version="1.0" encoding="UTF-8" standalone="no"?>
<!-- Created with Inkscape (http://www.inkscape.org/) -->

<svg
	width="3200.0845"
	height="1265.1125"
	viewBox="0 0 846.68901 334.72786"
	version="1.1"
	id="svg5"
	xmlns:xlink="http://www.w3.org/1999/xlink"
	xmlns="http://www.w3.org/2000/svg"
	xmlns:svg="http://www.w3.org/2000/svg">
	<defs
		id="defs2">
		<clipPath
			clipPathUnits="userSpaceOnUse"
			id="clipPath35444">
			<path
				style="fill:none;fill-opacity:0.6;stroke:#c2dc62;stroke-width:2.82231;stroke-linecap:butt;stroke-linejoin:round;stroke-miterlimit:4;stroke-dasharray:none;stroke-opacity:1;paint-order:stroke fill markers"
				d="M -0.98270227,407.85704 69.783855,395.94896 c 0,0 14.230683,-18.23318 33.287405,-20.0148 3.9143,-0.36595 5.42282,-0.36735 13.22767,-0.82283 2.78014,-5.46854 7.30654,-20.75111 9.70879,-27.55776 l -17.63853,2.06995 c 1.30985,-7.54566 6.71385,-8.80722 8.01737,-14.27862 0.18586,-20.83212 5.95919,-22.17118 9.99095,-39.46995 5.17039,-10.46602 3.83931,-4.06472 19.12076,-12.20584 -4.58691,-20.85301 2.64517,-24.06865 8.92623,-24.15619 6.18722,-0.24859 18.84363,7.64135 7.29397,26.22787 9.6882,5.21174 12.84921,1.08191 15.7067,30.83415 1.81067,11.43759 4.11369,12.44523 6.55537,19.92675 3.02349,8.18478 5.05955,10.01834 5.05955,10.01834 0,0 14.60333,4.21291 22.50369,4.31795 0.23508,-5.47965 -2.6233,-8.2527 1.2745,-13.28044 -0.99214,-9.1888 2.13361,-12.87405 3.89777,-20.60329 4.14281,-7.32073 5.11315,-15.50271 20.70387,-18.94145 -7.54652,-13.65583 4.72179,-20.55357 7.4792,-20.10626 13.5656,3.95308 9.36001,15.79676 6.23577,20.4847 7.10163,1.90254 14.85354,4.104 16.52256,14.21381 10.39215,-1.04203 18.00601,1.72318 23.63872,7.20331 -1.7268,-4.14147 -8.48341,-11.24101 -11.1728,-19.14705 -4.41555,-9.87176 -2.74132,-16.99879 -5.10722,-22.3624 -1.59742,-8.69045 2.88102,-14.31441 6.48795,-16.69321 -5.38292,-12.26928 0.94351,-19.68183 7.12475,-21.44805 9.21706,-1.89707 15.18373,10.72402 4.91411,23.54249 7.83005,4.62126 4.63685,9.82603 5.7141,15.40205 0,0 1.77004,-0.0644 3.07382,0.12869 -0.94197,-8.56657 7.12259,-13.47856 14.46438,-10.03419 1.37536,0.55383 5.67383,4.91241 2.27412,6.60183 2.33402,4.60976 -1.85486,11.00577 -2.84906,11.68128 -0.36333,3.53472 9.56548,5.76079 10.22125,8.34263 0.56645,2.58183 0.94723,3.07406 0.94723,3.07406 4.31152,-3.30052 9.60766,-1.3693 10.80598,-6.53418 3.38011,-2.05581 7.91467,-3.75346 10.5522,-6.33304 1.63901,-2.65538 -1.53112,-8.04902 0.56359,-13.20922 -3.49348,-1.64586 -0.91483,-6.77188 6.68631,-7.99317 10.39704,-0.0739 9.39538,10.61128 7.04871,21.18495 2.50531,2.74519 8.15247,4.17542 10.21054,6.071 3.29485,-7.14388 9.60829,-4.94681 11.85179,-8.49418 0.0503,-0.78949 -5.18736,-20.2426 6.41387,-19.78032 10.92949,0.62077 7.65112,13.43323 5.67394,18.01139 1.60182,5.18314 6.53034,2.47076 14.29446,10.98831 3.15592,-7.10367 10.57831,-10.01282 14.85765,-11.98891 0,0 -4.68027,-16.62332 4.22069,-18.139 7.01582,-0.0935 11.10498,1.18981 8.28791,18.19382 4.86016,2.90592 8.26913,3.80831 10.45816,5.9005 3.32483,-3.66112 11.17304,-12.51638 12.70087,-17.22644 0.0977,-7.81158 -1.01888,-10.44181 3.61736,-15.73282 -6.7908,-11.77363 -4.42169,-21.93612 3.04916,-22.94214 2.9232,-0.65093 10.17704,2.29257 6.09577,14.30068 -0.79603,4.58482 13.87845,2.61793 10.2834,27.37791 3.10973,2.89478 4.36753,10.12958 5.46486,17.30947 4.41817,0.21087 4.4141,9.18067 4.70842,18.58026 8.31842,3.13436 13.1173,17.90988 13.21864,17.74772 3.84466,-6.39384 0.11551,-11.15605 1.32746,-17.76016 0.13857,-4.53448 2.28614,-11.6273 4.40868,-12.30151 0.79962,-3.51843 1.30966,-3.66096 2.40646,-6.33328 -1.87079,-6.8231 5.29828,-15.79562 9.73947,-15.90749 8.89916,-0.0906 10.95031,18.46022 19.44823,18.09713 5.44996,-2.19056 -1.02585,-18.48779 9.98762,-18.5402 9.56575,0.13533 11.26464,17.16524 10.78138,17.16524 3.56298,3.03662 9.70579,0.83532 11.60176,-2.68208 0,0 -7.64299,-12.66627 4.58677,-17.49184 8.43597,0.81161 9.9038,7.9925 9.92576,16.70417 3.43159,1.4972 9.14548,2.23465 9.72884,11.69911 10.38082,-17.38704 9.54061,-26.90429 17.93229,-26.84179 5.53418,0.947 7.91893,6.37892 7.59381,12.92503 3.25654,5.58667 10.66006,10.35753 14.20222,9.48568 -0.0106,-2.85165 -3.49435,-17.50542 14.47528,-13.86822 -5.96138,-7.9721 -6.44126,-17.65818 3.29276,-21.77207 5.53863,-0.75346 12.44402,2.98747 11.57306,15.69052 8.23431,8.69588 14.90345,9.75101 13.40906,17.51039 4.55689,-2.98532 26.87926,-13.48452 37.94403,-2.92645 12.51315,11.94012 -8.13321,40.2971 -40.39145,43.4077 3.18063,6.62263 4.65629,14.44673 3.9026,20.76979 l 41.78118,1.1453 c 41.31799,3.86403 81.52283,5.69804 119.96592,7.38463 l 67.70992,344.59723 -1012.462435,12.63745 z"
				id="path35446"/>
		</clipPath>
	</defs>
	<g
		id="layer1"
		transform="translate(0.00262866,-229.36391)">
		<path
			style="display:inline;fill:#ffffff;fill-opacity:1;stroke:none;stroke-width:2.82231;stroke-linecap:butt;stroke-linejoin:round;stroke-miterlimit:4;stroke-dasharray:none;stroke-opacity:1;paint-order:stroke fill markers"
			d="M -0.00120449,408.28798 69.783855,395.94896 c 0,0 14.230684,-18.23318 33.287405,-20.01479 3.9143,-0.36595 5.42282,-0.36737 13.22767,-0.82285 2.78014,-5.46852 7.30654,-20.7511 9.70879,-27.55775 l -17.63853,2.06994 c 1.30985,-7.54564 6.71385,-8.80721 8.01737,-14.2786 0.18586,-20.83212 5.95919,-22.1712 9.99095,-39.46997 5.17039,-10.46602 3.83931,-4.0647 19.12076,-12.20582 -4.58691,-20.85302 2.64517,-24.06866 8.92623,-24.1562 6.18722,-0.24859 18.84363,7.64135 7.29397,26.22787 9.6882,5.21174 12.84921,1.0819 15.7067,30.83414 1.81067,11.4376 4.11369,12.44523 6.55537,19.92676 3.02349,8.18478 5.05955,10.01834 5.05955,10.01834 0,0 14.60333,4.21292 22.50369,4.31795 0.23508,-5.47965 -2.6233,-8.25269 1.2745,-13.28044 -0.99214,-9.18879 2.13361,-12.87405 3.89777,-20.6033 4.14281,-7.32072 5.11315,-15.50271 20.70387,-18.94143 -7.54652,-13.65585 4.72179,-20.55359 7.4792,-20.10627 13.5656,3.95307 9.36001,15.79675 6.23577,20.4847 7.10163,1.90255 14.85355,4.10401 16.52257,14.2138 10.39213,-1.04202 18.006,1.72319 23.63872,7.20333 -1.72682,-4.14148 -8.48343,-11.24101 -11.1728,-19.14705 -4.41556,-9.87178 -2.74133,-16.9988 -5.10722,-22.3624 -1.59744,-8.69047 2.881,-14.31442 6.48794,-16.69322 -5.38292,-12.26928 0.9435,-19.68183 7.12476,-21.44805 9.21705,-1.89707 15.18371,10.72402 4.91409,23.54249 7.83006,4.62125 4.63686,9.82603 5.71411,15.40204 0,0 1.77005,-0.0644 3.07382,0.12869 -0.94196,-8.56655 7.1226,-13.47855 14.46439,-10.03418 1.37534,0.55382 5.67383,4.9124 2.27412,6.60184 2.33401,4.60975 -1.85486,11.00575 -2.84907,11.68126 -0.36334,3.53474 9.56547,5.7608 10.22124,8.34263 0.56645,2.58184 0.94725,3.07407 0.94725,3.07407 4.31152,-3.30052 9.60764,-1.36929 10.80597,-6.53418 3.3801,-2.0558 7.91467,-3.75345 10.5522,-6.33305 1.639,-2.65538 -1.53112,-8.04902 0.56358,-13.20922 -3.49347,-1.64586 -0.91483,-6.77186 6.68632,-7.99316 10.39704,-0.0739 9.39539,10.61127 7.0487,21.18495 2.50533,2.74519 8.15248,4.17543 10.21054,6.07099 3.29485,-7.14386 9.60829,-4.94679 11.85181,-8.49417 0.0503,-0.78948 -5.18737,-20.2426 6.41387,-19.78032 10.92947,0.62077 7.65111,13.43323 5.67394,18.0114 1.6018,5.18312 6.53032,2.47076 14.29445,10.98831 3.15593,-7.10367 10.5783,-10.01282 14.85765,-11.98891 0,0 -4.68028,-16.62333 4.22069,-18.13901 7.01582,-0.0935 11.10498,1.18981 8.28792,18.19382 4.86014,2.90591 8.26913,3.80832 10.45814,5.90051 3.32485,-3.66112 11.17305,-12.51638 12.70088,-17.22644 0.0977,-7.81159 -1.01887,-10.44182 3.61735,-15.73283 -6.79078,-11.77363 -4.42167,-21.93612 3.04917,-22.94214 2.9232,-0.65093 10.17704,2.29257 6.09576,14.30068 -0.79602,4.58482 13.87847,2.61793 10.2834,27.3779 3.10973,2.8948 4.36753,10.12958 5.46487,17.30948 4.41816,0.21086 4.41409,9.18066 4.70842,18.58025 8.31842,3.13436 13.11729,17.90988 13.21863,17.74774 3.84467,-6.39385 0.11552,-11.15607 1.32748,-17.76018 0.13855,-4.53446 2.28612,-11.6273 4.40866,-12.30149 0.79963,-3.51845 1.30966,-3.66096 2.40646,-6.33329 -1.87079,-6.82309 5.29829,-15.79563 9.73947,-15.90749 8.89917,-0.0906 10.95033,18.46022 19.44824,18.09712 5.44996,-2.19056 -1.02585,-18.48778 9.98762,-18.5402 9.56576,0.13535 11.26464,17.16525 10.78137,17.16525 3.56298,3.03662 9.70579,0.83531 11.60178,-2.68207 0,0 -7.643,-12.66628 4.58676,-17.49184 8.43597,0.81159 9.9038,7.9925 9.92577,16.70417 3.43159,1.49719 9.14548,2.23463 9.72883,11.6991 10.38082,-17.38704 9.5406,-26.90429 17.93229,-26.84179 5.53419,0.94699 7.91894,6.37892 7.59381,12.92502 3.25653,5.58668 10.66007,10.35754 14.20221,9.48568 -0.0105,-2.85163 -3.49435,-17.5054 14.47528,-13.86821 -5.96136,-7.97209 -6.44125,-17.65818 3.29278,-21.77207 5.53861,-0.75346 12.444,2.98747 11.57305,15.69051 8.2343,8.69589 14.90345,9.75103 13.40905,17.51041 4.55691,-2.98532 26.87926,-13.48453 37.94403,-2.92647 12.51316,11.94012 -8.1332,40.2971 -40.39143,43.40771 3.18063,6.62262 4.65628,14.44674 3.9026,20.7698 l 41.78118,1.1453 c 41.31797,3.86401 80.11964,5.66299 118.56275,7.34956 l -0.006,202.37805 H 0 Z"
			id="path36109"/>
		<image
			width="846.66669"
			height="333.375"
			preserveAspectRatio="none"
			xlink:href="img/Gruppe/Gruppe optimiert.webp"
			id="image35646"
			x="0"
			y="230.71667"/>
		<path
			style="display:inline;fill:none;fill-opacity:0.6;stroke:#c2dc62;stroke-width:2.82231;stroke-linecap:butt;stroke-linejoin:round;stroke-miterlimit:4;stroke-dasharray:none;stroke-opacity:1;paint-order:stroke fill markers"
			d="m -0.00120449,408.28798 1.98171939,-0.002 67.8033401,-12.33694 c 0,0 14.230684,-18.23318 33.287405,-20.01479 3.9143,-0.36595 5.42282,-0.36737 13.22767,-0.82285 2.78014,-5.46852 7.30654,-20.7511 9.70879,-27.55775 l -17.63853,2.06994 c 1.30985,-7.54564 6.71385,-8.80721 8.01737,-14.2786 0.18586,-20.83212 5.95919,-22.1712 9.99095,-39.46997 5.17039,-10.46602 3.83931,-4.0647 19.12076,-12.20582 -4.58691,-20.85302 2.64517,-24.06866 8.92623,-24.1562 6.18722,-0.24859 18.84363,7.64135 7.29397,26.22787 9.6882,5.21174 12.84921,1.0819 15.7067,30.83414 1.81067,11.4376 4.11369,12.44523 6.55537,19.92676 3.02349,8.18478 5.05955,10.01834 5.05955,10.01834 0,0 14.60333,4.21292 22.50369,4.31795 0.23508,-5.47965 -2.6233,-8.25269 1.2745,-13.28044 -0.99214,-9.18879 2.13361,-12.87405 3.89777,-20.6033 4.14281,-7.32072 5.11315,-15.50271 20.70387,-18.94143 -7.54652,-13.65585 4.72179,-20.55359 7.4792,-20.10627 13.5656,3.95307 9.36001,15.79675 6.23577,20.4847 7.10163,1.90255 14.85355,4.10401 16.52257,14.2138 10.39213,-1.04202 18.006,1.72319 23.63872,7.20333 -1.72682,-4.14148 -8.48343,-11.24101 -11.1728,-19.14705 -4.41556,-9.87178 -2.74133,-16.9988 -5.10722,-22.3624 -1.59744,-8.69047 2.881,-14.31442 6.48794,-16.69322 -5.38292,-12.26928 0.9435,-19.68183 7.12476,-21.44805 9.21705,-1.89707 15.18371,10.72402 4.91409,23.54249 7.83006,4.62125 4.63686,9.82603 5.71411,15.40204 0,0 1.77005,-0.0644 3.07382,0.12869 -0.94196,-8.56655 7.1226,-13.47855 14.46439,-10.03418 1.37534,0.55382 5.67383,4.9124 2.27412,6.60184 2.33401,4.60975 -1.85486,11.00575 -2.84907,11.68126 -0.36334,3.53474 9.56547,5.7608 10.22124,8.34263 0.56645,2.58184 0.94725,3.07407 0.94725,3.07407 4.31152,-3.30052 9.60764,-1.36929 10.80597,-6.53418 3.3801,-2.0558 7.91467,-3.75345 10.5522,-6.33305 1.639,-2.65538 -1.53112,-8.04902 0.56358,-13.20922 -3.49347,-1.64586 -0.91483,-6.77186 6.68632,-7.99316 10.39704,-0.0739 9.39539,10.61127 7.0487,21.18495 2.50533,2.74519 8.15248,4.17543 10.21054,6.07099 3.29485,-7.14386 9.60829,-4.94679 11.85181,-8.49417 0.0503,-0.78948 -5.18737,-20.2426 6.41387,-19.78032 10.92947,0.62077 7.65111,13.43323 5.67394,18.0114 1.6018,5.18312 6.53032,2.47076 14.29445,10.98831 3.15593,-7.10367 10.5783,-10.01282 14.85765,-11.98891 0,0 -4.68028,-16.62333 4.22069,-18.13901 7.01582,-0.0935 11.10498,1.18981 8.28792,18.19382 4.86014,2.90591 8.26913,3.80832 10.45814,5.90051 3.32485,-3.66112 11.17305,-12.51638 12.70088,-17.22644 0.0977,-7.81159 -1.01887,-10.44182 3.61735,-15.73283 -6.79078,-11.77363 -4.42167,-21.93612 3.04917,-22.94214 2.9232,-0.65093 10.17704,2.29257 6.09576,14.30068 -0.79602,4.58482 13.87847,2.61793 10.2834,27.3779 3.10973,2.8948 4.36753,10.12958 5.46487,17.30948 4.41816,0.21086 4.41409,9.18066 4.70842,18.58025 8.31842,3.13436 13.11729,17.90988 13.21863,17.74774 3.84467,-6.39385 0.11552,-11.15607 1.32748,-17.76018 0.13855,-4.53446 2.28612,-11.6273 4.40866,-12.30149 0.79963,-3.51845 1.30966,-3.66096 2.40646,-6.33329 -1.87079,-6.82309 5.29829,-15.79563 9.73947,-15.90749 8.89917,-0.0906 10.95033,18.46022 19.44824,18.09712 5.44996,-2.19056 -1.02585,-18.48778 9.98762,-18.5402 9.56576,0.13535 11.26464,17.16525 10.78137,17.16525 3.56298,3.03662 9.70579,0.83531 11.60178,-2.68207 0,0 -7.643,-12.66628 4.58676,-17.49184 8.43597,0.81159 9.9038,7.9925 9.92577,16.70417 3.43159,1.49719 9.14548,2.23463 9.72883,11.6991 10.38082,-17.38704 9.5406,-26.90429 17.93229,-26.84179 5.53419,0.94699 7.91894,6.37892 7.59381,12.92502 3.25653,5.58668 10.66007,10.35754 14.20221,9.48568 -0.0105,-2.85163 -3.49435,-17.5054 14.47528,-13.86821 -5.96136,-7.97209 -6.44125,-17.65818 3.29278,-21.77207 5.53861,-0.75346 12.444,2.98747 11.57305,15.69051 8.2343,8.69589 14.90345,9.75103 13.40905,17.51041 4.55691,-2.98532 26.87926,-13.48453 37.94403,-2.92647 12.51316,11.94012 -8.10981,40.30879 -40.36804,43.4194 3.18063,6.62262 4.65628,14.44674 3.9026,20.7698 l 41.78118,1.1453 c 20.70385,2.31694 95.13972,6.64758 113.60565,7.32039 2.48786,0.0408 4.93371,0.0174 4.93371,0.0174"
			id="path35442"/>
	</g>
</svg>
