<svg version="1.1" id="logo" xmlns="http://www.w3.org/2000/svg" x="0" y="0" viewBox="0 0 333.7 80.8"
	 style="enable-background:new 0 0 333.7 80.8" xml:space="preserve">
  <style>
    .st0{enable-background:new}.st1{fill:#222}
  </style>
	<g id="Gruppe_168">
    <g class="st0">
      <path class="st1"
			d="M233.8 442.9v-11.5h-11.2v11.5h-6.9v-31.5h6.9v13.1h11.2v-13.1h6.9v31.5h-6.9zM262.1 410.8c9.1 0 16.3 7.3 16.3 16.4 0 9.1-7.1 16.3-16.3 16.3-9.1 0-16.2-7.3-16.2-16.3 0-9.1 7.1-16.4 16.2-16.4zm.1 25.6c5.2 0 9.3-4.4 9.3-9.3 0-5.2-4.1-9.5-9.3-9.5-5.1 0-9.2 4.2-9.2 9.5 0 4.9 4 9.3 9.2 9.3zM298.3 436.4c3.5 0 6-2.1 7.3-3.9l5.5 4.3c-2.4 3.7-7.2 6.7-12.7 6.7-8.9 0-16.1-7.4-16.1-16.4 0-8.9 7.1-16.2 16-16.2 5.2 0 9.7 2.4 12.3 6l-5.6 4c-1.3-1.8-3.9-3.1-6.7-3.1-4.6 0-9 4.3-9 9.2s4.4 9.4 9 9.4zM333.9 442.9v-11.5h-11.2v11.5h-6.9v-31.5h6.9v13.1h11.2v-13.1h6.9v31.5h-6.9zM353.4 419.8c0 1.1.5 1.9 4.3 3.3 5.1 1.8 10.2 4.9 10.2 10.6 0 5-4.1 9.7-10.3 9.7-5.2 0-8.9-2.2-12.1-7.1l5-3.9c1.4 2.1 4.2 4.2 7.1 4.1 1.8-.1 3.1-1.3 3-2.5 0-1.4-2.5-3.2-6.1-4.5-4.7-1.8-8.1-4.4-8.1-9.8 0-4.1 3.6-8.7 9.6-8.7 3.4 0 7.1.2 11.4 5.2l-5.4 4c-2.4-2.3-4.3-2.5-6-2.5-1.4.1-2.6 1.1-2.6 2.1zM379.4 442.9v-24.7h-8.6v-6.8H395v6.8h-8.7v24.7h-6.9zM415 436h-9.4v6.9h-6.9v-20c0-7.6 5.5-11.9 11.6-11.9 6 0 11.7 4.2 11.7 11.9v20h-7V436zm0-7v-5.8c0-3.4-2.1-5.3-4.7-5.3-2.9 0-4.7 1.9-4.7 5.3v5.8h9.4zM454.6 427.1c0 9.5-6.8 15.8-16.5 15.8h-10v-31.5h10c9.4 0 16.5 5.9 16.5 15.7zm-19.5-8.9v17.9h3.7c5.5 0 9-3.4 9-8.9 0-5.2-3.9-9-8.5-9h-4.2zM465.9 442.9v-24.7h-8.6v-6.8h24.2v6.8h-8.7v24.7h-6.9z"
			transform="translate(-215.619 -362.766)"/>
    </g>
		<g class="st0">
      <path class="st1"
			d="M299.3 395.5c-8.9 0-16.1-7.4-16.1-16.4 0-8.9 7.1-16.2 16-16.2 5.2 0 9.7 2.4 12.3 6l-5.6 4c-1.3-1.8-3.9-3.1-6.7-3.1-4.6 0-9 4.3-9 9.2s4.5 9.2 9.1 9.2c3.1 0 4.7-.5 6.2-1.6v-3.9h-7.4v-6.3h13.8V390c-2.5 3.6-7.1 5.5-12.6 5.5zM324.4 394.9v-10.5l-10.8-21h7.7l6.6 12.9 6.8-12.9h7.6l-10.9 21v10.5h-7zM371.2 394.9v-15.3l-9.2 9.2-9.4-9.2v15.3h-6.9v-32.2l16.3 16.5 16.1-16.5v32.2h-6.9zM384.7 394.9v-32.1l19.2 17.3v-16.7h6.9v32.1l-19.2-17.1v16.4h-6.9zM433.4 388H424v6.9h-7v-20c0-7.6 5.5-11.9 11.6-11.9 6 0 11.7 4.2 11.7 11.9v20h-6.9V388zm0-7v-5.8c0-3.4-2.1-5.3-4.7-5.3-2.9 0-4.7 1.9-4.7 5.3v5.8h9.4zM452.5 371.8c0 1.1.5 1.9 4.3 3.3 5.1 1.8 10.2 4.9 10.2 10.6 0 5-4.1 9.7-10.3 9.7-5.2 0-8.9-2.2-12.1-7.1l5-3.9c1.4 2.1 4.2 4.2 7.1 4.1 1.8-.1 3.1-1.3 3-2.5 0-1.4-2.5-3.2-6.1-4.5-4.7-1.8-8.1-4.4-8.1-9.8 0-4.1 3.6-8.7 9.6-8.7 3.4 0 7.1.2 11.4 5.2l-5.4 4c-2.4-2.3-4.3-2.5-6-2.5-1.4.1-2.6 1.1-2.6 2.1zM479.2 363.4v31.5h-6.9v-31.5h6.9zM503.8 363.4h6.9v20.1c0 8-6.8 11.9-12.6 11.9-5.9 0-12.6-3.9-12.6-11.9v-20.1h6.9v18.9c0 3.6 2.4 5.8 5.7 5.8 3.1 0 5.6-2.2 5.7-5.8v-18.9zM542.4 394.9v-15.3l-9.2 9.2-9.4-9.2v15.3h-6.9v-32.2l16.3 16.5 16.1-16.5v32.2h-6.9z"
			transform="translate(-215.619 -362.766)"/>
    </g>
		<g class="st0">
      <path class="st1"
			d="M500.8 419.5h-4.9v3.1h-1.3v-7.2c0-2.7 1.7-4.1 3.8-4.1 2 0 3.8 1.4 3.8 4.1v7.2h-1.3v-3.1zm0-1.3v-2.7c0-1.9-1-2.9-2.5-2.9-1.6 0-2.5 1-2.5 2.9v2.7h5zM504.7 422.5v-11.4l7.4 8.2v-8h1.3v11.4l-7.4-8.2v8h-1.3zM530.3 417c0 3.2-2.5 5.6-5.8 5.6h-3.1v-11.1h3.1c3.2-.1 5.8 2.3 5.8 5.5zm-7.6-4.3v8.5h1.5c2.8 0 4.7-1.7 4.7-4.2s-1.8-4.3-4.4-4.3h-1.8zM539.5 412.7h-5.9v3.9h4.9v1.3h-4.9v3.3h6v1.3h-7.4v-11.1h7.3v1.3zM547.5 422.5l-2-3.1H543v3.1h-1.3v-11.1h3.5c2.3 0 4.2 1.6 4.2 4 0 1.5-.8 3-2.4 3.8l2.1 3.3h-1.6zm-2.4-4.3c1.6 0 2.8-1.1 2.8-2.7s-1.3-2.8-2.8-2.8H543v5.5h2.1z"
			transform="translate(-215.619 -362.766)"/>
    </g>
		<g class="st0">
      <path class="st1"
			d="M500.8 439.6h-4.9v3.1h-1.3v-7.2c0-2.7 1.7-4.1 3.8-4.1 2 0 3.8 1.4 3.8 4.1v7.2h-1.3v-3.1zm0-1.3v-2.7c0-1.9-1-2.9-2.5-2.9-1.6 0-2.5 1-2.5 2.9v2.7h5zM506 431.5v11.1h-1.3v-11.1h1.3zM509.6 434.1c0 .7.1 1.3 2.3 2.1 1.9.7 3.4 1.5 3.4 3.5 0 1.6-1.4 3.2-3.4 3.2-1.8 0-3-.9-3.9-2.3l1-.8c.5.7 1.4 1.8 2.9 1.8 1.1 0 2-.8 2-1.8 0-1.2-1-1.7-2.8-2.3-1.7-.6-2.9-1.4-2.9-3.2 0-1.3 1.2-2.8 3.2-2.8 1.2 0 2.5.2 3.6 1.6l-1.1.8c-.8-.8-1.5-1.1-2.5-1.1-1.2-.2-1.8.6-1.8 1.3zM522.2 441.5c1.5 0 2.6-.7 3.3-1.8l1.1.8c-.9 1.4-2.4 2.3-4.3 2.3-3.2 0-5.7-2.6-5.7-5.8 0-3.2 2.5-5.8 5.7-5.8 1.8 0 3.3.8 4.2 2.1l-1.1.8c-.7-1-1.7-1.6-3.1-1.6-2.5 0-4.3 2-4.3 4.5-.1 2.5 1.8 4.5 4.2 4.5zM535.3 442.7V438h-5.7v4.6h-1.3v-11.1h1.3v5.2h5.7v-5.2h1.3v11.1h-1.3z"
			transform="translate(-215.619 -362.766)"/>
    </g>
		<path class="st1 welle"
			  d="M273.4 408.3c-.8.1-1.7.2-2.6.2-.8 0-1.7-.1-2.5-.3-.8-.2-1.6-.4-2.4-.8-.7-.3-1.4-.7-2.1-1.1-.5-.4-1.1-.8-1.7-1.1-.6-.3-1.2-.5-1.9-.7-.6-.2-1.3-.3-2-.3-1.4-.1-2.7.1-4 .6-.6.2-1.2.6-1.8.9-.6.4-1.1.8-1.5 1.3-.5.5-.9 1-1.3 1.6l-2.7-3.9c.5-.6 1.1-1.2 1.7-1.8.6-.5 1.3-1 2-1.5 3-1.8 6.5-2.3 9.8-1.6.8.2 1.6.4 2.4.8.7.3 1.4.7 2.1 1.1.5.4 1.1.8 1.7 1.1.6.3 1.2.5 1.9.7.6.2 1.3.3 2 .3 1.4.1 2.7-.1 4-.6.6-.2 1.2-.6 1.8-.9.6-.4 1.1-.8 1.6-1.3s.9-1 1.3-1.6l2.7 3.9c-.5.6-1.1 1.2-1.7 1.8-.6.5-1.3 1-2 1.5-.7.4-1.5.8-2.3 1.1-.8.3-1.6.5-2.5.6z"
			  transform="translate(-215.619 -362.766)"/>
  </g>
</svg>
